<svg width="93" height="14" viewBox="0 0 93 14" fill="none" xmlns="http://www.w3.org/2000/svg">
<path d="M0.512 13L5.568 0.952H5.664L10.704 13H8.928L5.152 3.384L6.256 2.664L2.032 13H0.512ZM3.472 8.616H7.776L8.288 9.96H3.024L3.472 8.616ZM22.8988 13.368L13.9548 4.296L14.4028 4.408L14.4348 13H12.8828V1.08H12.9628L21.8108 10.184L21.4428 10.104L21.4108 1.432H22.9468V13.368H22.8988ZM26.2734 1.432H27.8254V13H26.2734V1.432ZM36.2109 13V1.064H36.2269L42.2909 9.672L41.6349 9.544L47.6829 1.064H47.7149V13H46.1789V4.584L46.2749 5.368L41.9069 11.544H41.8749L37.4429 5.368L37.7149 4.648V13H36.2109ZM51.039 1.432H58.559V2.92H52.591V6.44H57.919V7.928H52.591V11.512H58.783V13H51.039V1.432ZM64.5485 1.432C65.1352 1.432 65.6738 1.512 66.1645 1.672C66.6658 1.82133 67.0978 2.05067 67.4605 2.36C67.8338 2.65867 68.1218 3.032 68.3245 3.48C68.5378 3.91733 68.6445 4.42933 68.6445 5.016C68.6445 5.47467 68.5752 5.92267 68.4365 6.36C68.3085 6.79733 68.0898 7.19733 67.7805 7.56C67.4712 7.912 67.0658 8.2 66.5645 8.424C66.0738 8.63733 65.4658 8.744 64.7405 8.744H63.0285V13H61.4765V1.432H64.5485ZM64.7085 7.256C65.1672 7.256 65.5458 7.18667 65.8445 7.048C66.1538 6.90933 66.3938 6.73333 66.5645 6.52C66.7352 6.296 66.8578 6.056 66.9325 5.8C67.0072 5.544 67.0445 5.304 67.0445 5.08C67.0445 4.84533 67.0018 4.60533 66.9165 4.36C66.8418 4.104 66.7138 3.86933 66.5325 3.656C66.3618 3.44267 66.1325 3.26667 65.8445 3.128C65.5672 2.98933 65.2258 2.92 64.8205 2.92H63.0285V7.256H64.7085ZM66.6125 8.136L69.6365 13H67.8445L64.7725 8.184L66.6125 8.136ZM80.2694 12.136C80.0774 12.264 79.816 12.408 79.4854 12.568C79.1547 12.728 78.7654 12.8613 78.3174 12.968C77.88 13.0747 77.4 13.128 76.8774 13.128C75.9814 13.1173 75.1707 12.9573 74.4454 12.648C73.7307 12.3387 73.1227 11.9173 72.6214 11.384C72.12 10.8507 71.7307 10.2373 71.4534 9.544C71.1867 8.84 71.0534 8.09333 71.0534 7.304C71.0534 6.44 71.192 5.64533 71.4694 4.92C71.7574 4.184 72.1574 3.54933 72.6694 3.016C73.1814 2.472 73.784 2.05067 74.4774 1.752C75.1814 1.45333 75.9494 1.304 76.7814 1.304C77.4747 1.304 78.104 1.4 78.6694 1.592C79.2347 1.77333 79.72 1.992 80.1254 2.248L79.5014 3.688C79.1814 3.47467 78.792 3.272 78.3334 3.08C77.8854 2.888 77.384 2.792 76.8294 2.792C76.264 2.792 75.7307 2.904 75.2294 3.128C74.728 3.352 74.2854 3.66667 73.9014 4.072C73.5174 4.47733 73.2134 4.952 72.9894 5.496C72.776 6.02933 72.6694 6.60533 72.6694 7.224C72.6694 7.85333 72.7654 8.44 72.9574 8.984C73.16 9.51733 73.4427 9.98133 73.8054 10.376C74.1787 10.7707 74.6267 11.08 75.1494 11.304C75.672 11.528 76.2587 11.64 76.9094 11.64C77.496 11.64 78.0187 11.5493 78.4774 11.368C78.936 11.1867 79.3147 10.984 79.6134 10.76L80.2694 12.136ZM92.0348 1.432V13H90.4988V7.928H84.4348V13H82.8828V1.432H84.4348V6.456H90.4988V1.432H92.0348Z" fill="#060328"/>
</svg>
